<svg data-v-5f19e91b="" xmlns="http://www.w3.org/2000/svg" width="52.38760981783392" height="60" viewBox="0 0 52.38760981783392 60"><!----> <!----> <!----> <g data-v-5f19e91b="" id="a1e23bdc-6e32-c16b-5483-7594734b925e" fill="black" transform="matrix(5.9940058569511425,0,0,5.9940058569511425,3.9560436759616806,-24.39560534356761)"><path d="M5.11 9.82L5.11 11.66L5.11 11.66Q5.11 12.46 4.63 13.16L4.63 13.16L6.83 13.16L6.83 13.16Q6.74 13.17 6.38 13.49L6.38 13.49L6.38 13.49Q5.69 14.08 5.50 14.08L5.50 14.08L3.12 14.08L3.12 14.08Q3.80 13.37 3.80 12.33L3.80 12.33L3.80 10.60L3.80 10.60Q3.80 9.93 3.02 8.32L3.02 8.32L3.02 8.32Q2.21 6.64 1.33 5.69L1.33 5.69L1.33 5.69Q0.67 4.97 0.18 4.97L0.18 4.97L0.18 4.97Q-0.14 4.97-0.66 5.30L-0.66 5.30L-0.66 5.30Q0.42 4.11 1.46 4.11L1.46 4.11L1.46 4.11Q2.04 4.11 2.49 4.63L2.49 4.63L2.49 4.63Q3.49 5.82 4.40 7.72L4.40 7.72L4.40 7.72Q4.83 8.63 5.02 9.32L5.02 9.32L5.02 9.32Q6.32 7.63 6.67 6.51L6.67 6.51L6.67 6.51Q6.76 6.23 6.76 6.01L6.76 6.01L6.76 6.01Q6.76 5.80 6.71 5.61L6.71 5.61L6.71 5.61Q6.65 5.43 6.54 5.29L6.54 5.29L6.54 5.29Q6.30 5.00 5.87 5.00L5.87 5.00L5.87 5.00Q5.67 5.00 5.50 5.05L5.50 5.05L5.50 5.05Q5.65 5.01 5.82 4.85L5.82 4.85L5.82 4.85Q5.99 4.69 6.18 4.52L6.18 4.52L6.18 4.52Q6.69 4.07 7.13 4.07L7.13 4.07L7.13 4.07Q7.57 4.07 7.83 4.32L7.83 4.32L7.83 4.32Q8.08 4.56 8.08 4.93L8.08 4.93L8.08 4.93Q8.08 5.30 7.91 5.72L7.91 5.72L7.91 5.72Q7.75 6.14 7.48 6.59L7.48 6.59L7.48 6.59Q7.22 7.05 6.89 7.52L6.89 7.52L6.89 7.52Q6.56 7.98 6.23 8.42L6.23 8.42L6.23 8.42Q5.90 8.85 5.60 9.21L5.60 9.21L5.60 9.21Q5.30 9.58 5.11 9.82L5.11 9.82Z"></path></g> <!----></svg>